<svg width="19" height="22" viewBox="0 0 19 22" fill="none" xmlns="http://www.w3.org/2000/svg">
<path d="M14.6834 0.684083L12.5258 4.73108C11.9162 5.87448 11.362 6.91589 10.9601 7.67267C10.7592 8.05102 10.5962 8.35847 10.4834 8.57202C10.4271 8.67871 10.383 8.76246 10.3529 8.82006L10.3173 8.88838L10.3054 8.9119C10.305 8.91288 10.3043 8.91419 10.3036 8.91574C10.3019 8.91908 10.2997 8.92358 10.2975 8.92853C10.2961 8.93146 10.2922 8.93994 10.2878 8.95077C10.2858 8.95559 10.281 8.9676 10.2758 8.98324C10.2732 8.99136 10.2674 9.01163 10.2643 9.02386C10.26 9.04384 10.2521 9.10185 10.2507 9.13996C10.2507 9.40821 10.447 9.53867 10.4754 9.55739C10.5298 9.59332 10.5785 9.60975 10.5939 9.61486C10.6311 9.62716 10.6617 9.63225 10.6695 9.63354L10.6699 9.63361C10.6912 9.63715 10.7087 9.63862 10.7137 9.63904L10.7139 9.63905C10.7278 9.64023 10.7412 9.64086 10.7494 9.64121C10.7682 9.64202 10.7923 9.64268 10.8191 9.64328C10.874 9.64451 10.9531 9.6457 11.0526 9.64687C11.2521 9.64922 11.5396 9.65152 11.8934 9.65367C12.6013 9.65796 13.5771 9.66162 14.6502 9.66362L18.4134 9.67062L18.2955 9.60029L18.5516 9.17088L14.6511 9.16362C13.2378 9.16099 11.9938 9.15547 11.3094 9.14944C11.2807 9.20401 11.2571 9.24892 11.2389 9.28358L11.207 9.34507L11.2031 9.35264C11.2022 9.35451 11.2017 9.35537 11.2017 9.35547L11.2025 9.35387L11.2053 9.34782C11.2058 9.34688 11.2069 9.3445 11.2084 9.34108C11.2099 9.33765 11.2118 9.33317 11.2139 9.32805C11.2157 9.32353 11.2205 9.31176 11.2256 9.29631C11.2281 9.28828 11.234 9.26809 11.237 9.25592C11.241 9.2375 11.248 9.18657 11.2502 9.1489C10.9323 9.14594 10.7507 9.14287 10.7507 9.13996C10.7507 9.13735 10.8343 8.97794 10.9828 8.69722C10.9474 8.67868 10.9191 8.66913 10.9081 8.66549C10.8715 8.65339 10.8416 8.64843 10.8345 8.64724L10.834 8.64717C10.815 8.644 10.8003 8.64279 10.7979 8.64259L10.7977 8.64257C10.7905 8.64197 10.7872 8.64191 10.7924 8.64213C10.8004 8.64248 10.8161 8.64297 10.8414 8.64353C10.8813 8.64442 10.9377 8.64534 11.0098 8.64627C11.3834 7.94037 12.1219 6.55146 12.967 4.96631L15.1834 0.809041M14.6834 0.684083V0.809041H15.1834M14.6834 0.684083L14.7292 0.598235L14.7422 0.573817L14.788 0.598235L15.1834 0.809041M14.6834 0.684083V0.598235C14.6834 0.579694 14.6833 0.564365 14.6831 0.55133C14.6895 0.556915 14.6918 0.560162 14.6917 0.559921M15.1834 0.809041V0.598235C15.1834 0.408718 15.1748 0.375409 15.0977 0.268163M14.6917 0.559921L14.6952 0.557367M14.6917 0.559921C14.6993 0.570535 14.7036 0.576794 14.706 0.580552C14.707 0.581933 14.7074 0.58266 14.7075 0.582806C14.7076 0.583039 14.7069 0.581793 14.7055 0.579356C14.7031 0.575025 14.6994 0.567626 14.6954 0.55775C14.6953 0.557622 14.6953 0.557494 14.6952 0.557367M14.6917 0.559921C14.6916 0.559915 14.6916 0.559909 14.6916 0.559903L14.6952 0.557346C14.6952 0.557353 14.6952 0.55736 14.6952 0.557367" fill="#FFFAA0" stroke="url(#paint0_linear_44_288)"/>
<defs>
<linearGradient id="paint0_linear_44_288" x1="9.5" y1="0" x2="9.5" y2="22" gradientUnits="userSpaceOnUse">
<stop stop-color="#FFC700"/>
<stop offset="1" stop-color="#D3623F"/>
</linearGradient>
</defs>
</svg>
